REM DIRINDEX 1\2,1\3,1\4
REM DIRNAME folder01,folder02,folder03,folder04
TITLE ""
FILE "DISC2Track23.mp3" MP3
  TRACK 01 AUDIO
    TITLE "0:"
    INDEX 01 00:00:00
  TRACK 02 AUDIO
    TITLE "4:cjc105_3242"
    INDEX 01 00:00:19
  TRACK 03 AUDIO
    TITLE "0:"
    INDEX 01 00:03:25
  TRACK 04 AUDIO
    TITLE "3:cjc105_3243"
    INDEX 01 00:03:74
  TRACK 05 AUDIO
    TITLE "2:cjc105_3244"
    INDEX 01 00:04:68
  TRACK 06 AUDIO
    TITLE "3:cjc105_3245"
    INDEX 01 00:07:00
  TRACK 07 AUDIO
    TITLE "2:cjc105_3246"
    INDEX 01 00:08:38
  TRACK 08 AUDIO
    TITLE "3:cjc105_3247"
    INDEX 01 00:10:53
  TRACK 09 AUDIO
    TITLE "2:cjc105_3248"
    INDEX 01 00:12:07
  TRACK 10 AUDIO
    TITLE "3:cjc105_3249"
    INDEX 01 00:15:54
  TRACK 11 AUDIO
    TITLE "2:cjc105_3250"
    INDEX 01 00:16:67
  TRACK 12 AUDIO
    TITLE "3:cjc105_3251"
    INDEX 01 00:19:48
  TRACK 13 AUDIO
    TITLE "2:cjc105_3252"
    INDEX 01 00:20:65
  TRACK 14 AUDIO
    TITLE "3:cjc105_3253"
    INDEX 01 00:23:42
  TRACK 15 AUDIO
    TITLE "2:cjc105_3254"
    INDEX 01 00:24:65
  TRACK 16 AUDIO
    TITLE "3:cjc105_3255"
    INDEX 01 00:26:69
  TRACK 17 AUDIO
    TITLE "2:cjc105_3256"
    INDEX 01 00:28:00
  TRACK 18 AUDIO
    TITLE "3:cjc105_3257"
    INDEX 01 00:30:28
  TRACK 19 AUDIO
    TITLE "2:cjc105_3258"
    INDEX 01 00:31:33
  TRACK 20 AUDIO
    TITLE "3:cjc105_3259"
    INDEX 01 00:33:54
  TRACK 21 AUDIO
    TITLE "2:cjc105_3260"
    INDEX 01 00:35:23
  TRACK 22 AUDIO
    TITLE "3:cjc105_3261"
    INDEX 01 00:37:28
  TRACK 23 AUDIO
    TITLE "2:cjc105_3262"
    INDEX 01 00:38:53
  TRACK 24 AUDIO
    TITLE "3:cjc105_3263"
    INDEX 01 00:41:67
  TRACK 25 AUDIO
    TITLE "2:cjc105_3264"
    INDEX 01 00:42:59
  TRACK 26 AUDIO
    TITLE "3:cjc105_3265"
    INDEX 01 00:44:32
  TRACK 27 AUDIO
    TITLE "2:cjc105_3266"
    INDEX 01 00:45:37
  TRACK 28 AUDIO
    TITLE "3:cjc105_3267"
    INDEX 01 00:48:65
  TRACK 29 AUDIO
    TITLE "2:cjc105_3268"
    INDEX 01 00:50:23
  TRACK 30 AUDIO
    TITLE "3:cjc105_3269"
    INDEX 01 00:52:14
  TRACK 31 AUDIO
    TITLE "2:cjc105_3270"
    INDEX 01 00:53:21
  TRACK 32 AUDIO
    TITLE "3:cjc105_3271"
    INDEX 01 00:55:36
  TRACK 33 AUDIO
    TITLE "2:cjc105_3272"
    INDEX 01 00:57:13
  TRACK 34 AUDIO
    TITLE "3:cjc105_3273"
    INDEX 01 00:58:48
  TRACK 35 AUDIO
    TITLE "2:cjc105_3274"
    INDEX 01 00:59:57
  TRACK 36 AUDIO
    TITLE "3:cjc105_3275"
    INDEX 01 01:02:46
  TRACK 37 AUDIO
    TITLE "2:cjc105_3276"
    INDEX 01 01:03:55
  TRACK 38 AUDIO
    TITLE "3:cjc105_3277"
    INDEX 01 01:08:11
  TRACK 39 AUDIO
    TITLE "2:cjc105_3278"
    INDEX 01 01:09:10
  TRACK 40 AUDIO
    TITLE "3:cjc105_3279"
    INDEX 01 01:10:51
  TRACK 41 AUDIO
    TITLE "2:cjc105_3280"
    INDEX 01 01:11:47
  TRACK 42 AUDIO
    TITLE "3:cjc105_3281"
    INDEX 01 01:13:73
  TRACK 43 AUDIO
    TITLE "2:cjc105_3282"
    INDEX 01 01:14:61
  TRACK 44 AUDIO
    TITLE "3:cjc105_3283"
    INDEX 01 01:16:07
  TRACK 45 AUDIO
    TITLE "2:cjc105_3284"
    INDEX 01 01:17:00
  TRACK 46 AUDIO
    TITLE "3:cjc105_3285"
    INDEX 01 01:18:23
  TRACK 47 AUDIO
    TITLE "2:cjc105_3286"
    INDEX 01 01:19:36
  TRACK 48 AUDIO
    TITLE "3:cjc105_3287"
    INDEX 01 01:21:53
  TRACK 49 AUDIO
    TITLE "2:cjc105_3288"
    INDEX 01 01:22:60
  TRACK 50 AUDIO
    TITLE "3:cjc105_3289"
    INDEX 01 01:25:35
  TRACK 51 AUDIO
    TITLE "2:cjc105_3290"
    INDEX 01 01:26:36
  TRACK 52 AUDIO
    TITLE "3:cjc105_3291"
    INDEX 01 01:29:70
  TRACK 53 AUDIO
    TITLE "2:cjc105_3292"
    INDEX 01 01:31:18
  TRACK 54 AUDIO
    TITLE "3:cjc105_3293"
    INDEX 01 01:35:33
  TRACK 55 AUDIO
    TITLE "2:cjc105_3294"
    INDEX 01 01:36:39
  TRACK 56 AUDIO
    TITLE "3:cjc105_3295"
    INDEX 01 01:39:74
  TRACK 57 AUDIO
    TITLE "2:cjc105_3296"
    INDEX 01 01:41:26
  TRACK 58 AUDIO
    TITLE "3:cjc105_3297"
    INDEX 01 01:45:30
  TRACK 59 AUDIO
    TITLE "2:cjc105_3298"
    INDEX 01 01:46:33
  TRACK 60 AUDIO
    TITLE "3:cjc105_3299"
    INDEX 01 01:49:16
  TRACK 61 AUDIO
    TITLE "2:cjc105_3300"
    INDEX 01 01:50:31
  TRACK 62 AUDIO
    TITLE "3:cjc105_3301"
    INDEX 01 01:54:13
  TRACK 63 AUDIO
    TITLE "2:cjc105_3302"
    INDEX 01 01:55:36
  TRACK 64 AUDIO
    TITLE "3:cjc105_3303"
    INDEX 01 01:57:25
  TRACK 65 AUDIO
    TITLE "2:cjc105_3304"
    INDEX 01 01:58:60
  TRACK 66 AUDIO
    TITLE "3:cjc105_3305"
    INDEX 01 02:00:16
  TRACK 67 AUDIO
    TITLE "2:cjc105_3306"
    INDEX 01 02:01:39
  TRACK 68 AUDIO
    TITLE "3:cjc105_3307"
    INDEX 01 02:03:32
  TRACK 69 AUDIO
    TITLE "2:cjc105_3308"
    INDEX 01 02:04:49
  TRACK 70 AUDIO
    TITLE "3:cjc105_3309"
    INDEX 01 02:06:01
  TRACK 71 AUDIO
    TITLE "2:cjc105_3310"
    INDEX 01 02:07:43
  TRACK 72 AUDIO
    TITLE "3:cjc105_3311"
    INDEX 01 02:09:30
  TRACK 73 AUDIO
    TITLE "2:cjc105_3312"
    INDEX 01 02:10:61
  TRACK 74 AUDIO
    TITLE "3:cjc105_3313"
    INDEX 01 02:11:68
  TRACK 75 AUDIO
    TITLE "2:cjc105_3314"
    INDEX 01 02:13:01
  TRACK 76 AUDIO
    TITLE "3:cjc105_3315"
    INDEX 01 02:15:07
  TRACK 77 AUDIO
    TITLE "2:cjc105_3316"
    INDEX 01 02:16:46
  TRACK 78 AUDIO
    TITLE "3:cjc105_3317"
    INDEX 01 02:18:08
  TRACK 79 AUDIO
    TITLE "2:cjc105_3318"
    INDEX 01 02:19:37
  TRACK 80 AUDIO
    TITLE "3:cjc105_3319"
    INDEX 01 02:23:32
  TRACK 81 AUDIO
    TITLE "2:cjc105_3320"
    INDEX 01 02:24:65
  TRACK 82 AUDIO
    TITLE "3:cjc105_3321"
    INDEX 01 02:26:60
  TRACK 83 AUDIO
    TITLE "2:cjc105_3322"
    INDEX 01 02:28:16
  TRACK 84 AUDIO
    TITLE "3:cjc105_3323"
    INDEX 01 02:30:46
  TRACK 85 AUDIO
    TITLE "2:cjc105_3324"
    INDEX 01 02:31:55
  TRACK 86 AUDIO
    TITLE "3:cjc105_3325"
    INDEX 01 02:35:69
  TRACK 87 AUDIO
    TITLE "2:cjc105_3326"
    INDEX 01 02:37:13
  TRACK 88 AUDIO
    TITLE "3:cjc105_3327"
    INDEX 01 02:40:29
  TRACK 89 AUDIO
    TITLE "2:cjc105_3328"
    INDEX 01 02:41:19
  TRACK 90 AUDIO
    TITLE "3:cjc105_3329"
    INDEX 01 02:42:51
  TRACK 91 AUDIO
    TITLE "2:cjc105_3330"
    INDEX 01 02:43:57
  TRACK 92 AUDIO
    TITLE "3:cjc105_3331"
    INDEX 01 02:45:65
  TRACK 93 AUDIO
    TITLE "2:cjc105_3332"
    INDEX 01 02:46:59
  TRACK 94 AUDIO
    TITLE "3:cjc105_3333"
    INDEX 01 02:48:19
  TRACK 95 AUDIO
    TITLE "2:cjc105_3334"
    INDEX 01 02:49:24
  TRACK 96 AUDIO
    TITLE "3:cjc105_3335"
    INDEX 01 02:51:27
  TRACK 97 AUDIO
    TITLE "2:cjc105_3336"
    INDEX 01 02:52:36
  TRACK 98 AUDIO
    TITLE "3:cjc105_3337"
    INDEX 01 02:54:39
  TRACK 99 AUDIO
    TITLE "2:cjc105_3338"
    INDEX 01 02:55:60
  TRACK 100 AUDIO
    TITLE "3:cjc105_3339"
    INDEX 01 02:57:18
  TRACK 101 AUDIO
    TITLE "2:cjc105_3340"
    INDEX 01 02:59:03
  TRACK 102 AUDIO
    TITLE "3:cjc105_3341"
    INDEX 01 03:00:28
  TRACK 103 AUDIO
    TITLE "2:cjc105_3342"
    INDEX 01 03:01:49
  TRACK 104 AUDIO
    TITLE "3:cjc105_3343"
    INDEX 01 03:04:14
  TRACK 105 AUDIO
    TITLE "2:cjc105_3344"
    INDEX 01 03:05:23
  TRACK 106 AUDIO
    TITLE "3:cjc105_3345"
    INDEX 01 03:07:20
  TRACK 107 AUDIO
    TITLE "2:cjc105_3346"
    INDEX 01 03:08:15
  TRACK 108 AUDIO
    TITLE "3:cjc105_3347"
    INDEX 01 03:10:14
  TRACK 109 AUDIO
    TITLE "2:cjc105_3348"
    INDEX 01 03:11:16
  TRACK 110 AUDIO
    TITLE "3:cjc105_3349"
    INDEX 01 03:12:64
  TRACK 111 AUDIO
    TITLE "2:cjc105_3350"
    INDEX 01 03:14:20
  TRACK 112 AUDIO
    TITLE "3:cjc105_3351"
    INDEX 01 03:16:05
  TRACK 113 AUDIO
    TITLE "2:cjc105_3352"
    INDEX 01 03:17:12
  TRACK 114 AUDIO
    TITLE "3:cjc105_3353"
    INDEX 01 03:21:28
  TRACK 115 AUDIO
    TITLE "2:cjc105_3354"
    INDEX 01 03:22:65
  TRACK 116 AUDIO
    TITLE "3:cjc105_3355"
    INDEX 01 03:24:26
  TRACK 117 AUDIO
    TITLE "2:cjc105_3356"
    INDEX 01 03:25:30
  TRACK 118 AUDIO
    TITLE "3:cjc105_3357"
    INDEX 01 03:27:70
  TRACK 119 AUDIO
    TITLE "2:cjc105_3358"
    INDEX 01 03:29:00
  TRACK 120 AUDIO
    TITLE "3:cjc105_3359"
    INDEX 01 03:31:54
  TRACK 121 AUDIO
    TITLE "2:cjc105_3360"
    INDEX 01 03:32:63
  TRACK 122 AUDIO
    TITLE "3:cjc105_3361"
    INDEX 01 03:34:13
  TRACK 123 AUDIO
    TITLE "2:cjc105_3362"
    INDEX 01 03:35:24
  TRACK 124 AUDIO
    TITLE "3:cjc105_3363"
    INDEX 01 03:36:69
  TRACK 125 AUDIO
    TITLE "2:cjc105_3364"
    INDEX 01 03:38:28
  TRACK 126 AUDIO
    TITLE "3:cjc105_3365"
    INDEX 01 03:41:01
  TRACK 127 AUDIO
    TITLE "2:cjc105_3366"
    INDEX 01 03:42:34
  TRACK 128 AUDIO
    TITLE "3:cjc105_3367"
    INDEX 01 03:44:52
  TRACK 129 AUDIO
    TITLE "2:cjc105_3368"
    INDEX 01 03:45:73
  TRACK 130 AUDIO
    TITLE "3:cjc105_3369"
    INDEX 01 03:47:74
  TRACK 131 AUDIO
    TITLE "2:cjc105_3370"
    INDEX 01 03:49:24
  TRACK 132 AUDIO
    TITLE "3:cjc105_3371"
    INDEX 01 03:50:57
  TRACK 133 AUDIO
    TITLE "2:cjc105_3372"
    INDEX 01 03:51:68
  TRACK 134 AUDIO
    TITLE "3:cjc105_3373"
    INDEX 01 03:55:01
  TRACK 135 AUDIO
    TITLE "2:cjc105_3374"
    INDEX 01 03:56:12
  TRACK 136 AUDIO
    TITLE "3:cjc105_3375"
    INDEX 01 03:57:71
  TRACK 137 AUDIO
    TITLE "2:cjc105_3376"
    INDEX 01 03:59:27
  TRACK 138 AUDIO
    TITLE "3:cjc105_3377"
    INDEX 01 04:00:69
  TRACK 139 AUDIO
    TITLE "2:cjc105_3378"
    INDEX 01 04:02:17
  TRACK 140 AUDIO
    TITLE "3:cjc105_3379"
    INDEX 01 04:04:43
  TRACK 141 AUDIO
    TITLE "2:cjc105_3380"
    INDEX 01 04:05:58
  TRACK 142 AUDIO
    TITLE "3:cjc105_3381"
    INDEX 01 04:06:72
  TRACK 143 AUDIO
    TITLE "2:cjc105_3382"
    INDEX 01 04:07:73
  TRACK 144 AUDIO
    TITLE "3:cjc105_3383"
    INDEX 01 04:09:37
  TRACK 145 AUDIO
    TITLE "2:cjc105_3384"
    INDEX 01 04:10:52
  TRACK 146 AUDIO
    TITLE "3:cjc105_3385"
    INDEX 01 04:12:17
  TRACK 147 AUDIO
    TITLE "2:cjc105_3386"
    INDEX 01 04:13:23
  TRACK 148 AUDIO
    TITLE "3:cjc105_3387"
    INDEX 01 04:16:41
  TRACK 149 AUDIO
    TITLE "2:cjc105_3388"
    INDEX 01 04:17:50
  TRACK 150 AUDIO
    TITLE "3:cjc105_3389"
    INDEX 01 04:19:61
  TRACK 151 AUDIO
    TITLE "2:cjc105_3390"
    INDEX 01 04:20:74
  TRACK 152 AUDIO
    TITLE "3:cjc105_3391"
    INDEX 01 04:23:64
  TRACK 153 AUDIO
    TITLE "2:cjc105_3392"
    INDEX 01 04:24:70
  TRACK 154 AUDIO
    TITLE "3:cjc105_3393"
    INDEX 01 04:27:68
  TRACK 155 AUDIO
    TITLE "2:cjc105_3394"
    INDEX 01 04:29:00
  TRACK 156 AUDIO
    TITLE "3:cjc105_3395"
    INDEX 01 04:32:59
  TRACK 157 AUDIO
    TITLE "2:cjc105_3396"
    INDEX 01 04:33:55
  TRACK 158 AUDIO
    TITLE "3:cjc105_3397"
    INDEX 01 04:37:13
  TRACK 159 AUDIO
    TITLE "2:cjc105_3398"
    INDEX 01 04:38:15
  TRACK 160 AUDIO
    TITLE "0:"
    INDEX 01 04:42:20
